<?xml version="1.0" encoding="utf-8"?>
<!-- Generator: Adobe Illustrator 28.3.0, SVG Export Plug-In . SVG Version: 6.00 Build 0)  -->
<svg version="1.1" id="Capa_1" xmlns="http://www.w3.org/2000/svg" xmlns:xlink="http://www.w3.org/1999/xlink" x="0px" y="0px"
	 viewBox="0 0 227.2 64.1" style="enable-background:new 0 0 227.2 64.1;" xml:space="preserve">
<style type="text/css">
	.st0{fill:#FFFFFF;}
</style>
<g>
	<path class="st0" d="M107.6,42v-20h9.2v3.4h-5.1v5.1h4.8v3.2h-4.8V42H107.6z M120.5,22.1h4.1v20h-4.1V22.1z M100.9,42.2
		c-5.5,0-8-4.2-8-9.9c0-7.5,4.4-10.5,8.6-10.5c1.4,0,2.5,0.3,2.9,0.5l-0.7,3.3c-0.5-0.2-1-0.4-1.9-0.4c-2.3,0-4.4,1.9-4.4,6.8
		c0,4.8,1.9,6.6,4.4,6.6c0.7,0,1.5-0.1,2-0.3l0.4,3.3C103.4,42,102.3,42.2,100.9,42.2 M110,8.7C97.1,8.7,86.6,19.2,86.6,32
		c0,12.9,10.4,23.3,23.3,23.3c12.9,0,23.3-10.4,23.3-23.3C133.3,19.2,122.8,8.7,110,8.7"/>
	<path class="st0" d="M138.4,34.4c-0.6,6.9-3.6,13.1-8.3,17.7c-5.2,5.2-12.3,8.4-20.2,8.4c-7.9,0-15-3.2-20.2-8.4
		c-4.6-4.6-7.7-10.8-8.3-17.7c-0.1,0-0.3,0-0.4,0c-0.1,0-0.2,0-0.2,0c1.3,15,13.8,26.7,29.1,26.7s27.8-11.7,29.1-26.7
		c-0.1,0-0.1,0-0.2,0C138.7,34.4,138.5,34.4,138.4,34.4"/>
	<path class="st0" d="M139.1,30c0.1,0.7,0.1,1.4,0.1,2.2h-0.7c0-0.7,0-1.4-0.1-2.2c-1,0.2-1.8,1.1-1.8,2.2c0,1.1,0.8,1.9,1.8,2.2
		c0.1,0,0.3,0,0.4,0c0.1,0,0.2,0,0.2,0c1.1-0.1,2-1,2-2.2C141,31.1,140.2,30.2,139.1,30"/>
	<path class="st0" d="M110,3C94.5,3,81.9,14.9,80.8,30c-0.1,0.7-0.1,1.4-0.1,2.2h0.7c0-0.7,0-1.4,0.1-2.2c0.5-7,3.6-13.3,8.3-18
		c5.2-5.2,12.3-8.4,20.2-8.4c7.9,0,15,3.2,20.2,8.4c4.7,4.7,7.8,11,8.3,18c0.1,0.7,0.1,1.4,0.1,2.2h0.7c0-0.7,0-1.5-0.1-2.2
		C138,14.9,125.4,3,110,3"/>
	<g>
		<g>
			<g>
				<g>
					<path class="st0" d="M149.3,30c-0.2,0.1-0.7,0.2-1.3,0.2c-2.2,0-3.3-1.7-3.3-4c0-3.1,1.8-4.3,3.5-4.3c0.6,0,1,0.1,1.2,0.2
						l-0.3,1.3c-0.2-0.1-0.4-0.2-0.8-0.2c-1,0-1.8,0.8-1.8,2.8c0,1.9,0.8,2.7,1.8,2.7c0.3,0,0.6-0.1,0.8-0.1L149.3,30z"/>
					<path class="st0" d="M155.5,25.9c0,3.1-1.2,4.3-2.8,4.3c-2,0-2.7-2-2.7-4.2c0-2.2,0.9-4.1,2.9-4.1
						C154.9,21.8,155.5,24,155.5,25.9z M151.7,26c0,1.8,0.4,2.8,1.1,2.8c0.7,0,1-1.2,1-2.9c0-1.4-0.2-2.7-1-2.7
						C152.1,23.2,151.7,24.2,151.7,26z"/>
					<path class="st0" d="M156.8,30.1v-8.1h1.5l1.3,3.2c0.3,0.6,0.7,1.7,0.9,2.4h0c-0.1-0.9-0.2-2.3-0.2-3.8v-1.8h1.5v8.1h-1.5
						l-1.3-3.1c-0.3-0.7-0.7-1.7-0.9-2.5h0c0.1,0.8,0.1,2.1,0.1,3.7v1.8H156.8z"/>
					<path class="st0" d="M163.4,28.5c0.3,0.2,1,0.3,1.4,0.3c0.8,0,1.2-0.4,1.2-0.9c0-0.6-0.4-0.9-1.1-1.3c-1.2-0.7-1.6-1.5-1.6-2.3
						c0-1.3,0.9-2.4,2.7-2.4c0.6,0,1.1,0.1,1.4,0.3l-0.3,1.4c-0.2-0.1-0.6-0.3-1.1-0.3c-0.7,0-1.1,0.4-1.1,0.8
						c0,0.5,0.3,0.7,1.2,1.3c1.2,0.7,1.6,1.5,1.6,2.3c0,1.5-1.2,2.5-2.9,2.5c-0.7,0-1.4-0.2-1.7-0.3L163.4,28.5z"/>
					<path class="st0" d="M172.6,26.5h-2v2.2h2.2v1.4h-3.9v-8.1h3.8v1.4h-2.1v1.9h2V26.5z"/>
					<path class="st0" d="M175.2,21.9h1.7v5.5c0,2.3-1.2,2.7-2.4,2.7c-0.3,0-0.7,0-0.8-0.1l0.1-1.3c0.2,0,0.3,0.1,0.6,0.1
						c0.5,0,0.9-0.2,0.9-1.2V21.9z"/>
					<path class="st0" d="M183.7,25.9c0,3.1-1.2,4.3-2.8,4.3c-2,0-2.7-2-2.7-4.2c0-2.2,0.9-4.1,2.9-4.1
						C183.1,21.8,183.7,24,183.7,25.9z M179.9,26c0,1.8,0.4,2.8,1.1,2.8c0.7,0,1-1.2,1-2.9c0-1.4-0.2-2.7-1-2.7
						C180.2,23.2,179.9,24.2,179.9,26z"/>
					<path class="st0" d="M187.5,21.9h3.8v1.4h-2.1v2.1h2v1.3h-2v3.4h-1.7V21.9z"/>
					<path class="st0" d="M196.3,26.5h-2v2.2h2.2v1.4h-3.9v-8.1h3.8v1.4h-2.1v1.9h2V26.5z"/>
					<path class="st0" d="M197.9,22.1c0.4-0.1,1-0.2,1.7-0.2c1.1,0,1.9,0.2,2.4,0.7c0.7,0.6,1.1,1.7,1.1,3.3c0,1.6-0.5,2.8-1.2,3.4
						c-0.6,0.5-1.4,0.8-2.6,0.8c-0.5,0-1.1,0-1.4-0.1V22.1z M199.6,28.8c0.1,0,0.2,0,0.3,0c0.8,0,1.5-0.7,1.5-3
						c0-1.7-0.5-2.7-1.5-2.7c-0.1,0-0.2,0-0.3,0V28.8z"/>
					<path class="st0" d="M208.1,26.5h-2v2.2h2.2v1.4h-3.9v-8.1h3.8v1.4h-2.1v1.9h2V26.5z"/>
					<path class="st0" d="M209.7,22.1c0.5-0.1,1.2-0.2,1.8-0.2c0.9,0,1.8,0.1,2.3,0.6c0.5,0.4,0.7,1,0.7,1.7c0,0.9-0.5,1.7-1.3,2v0
						c0.6,0.2,0.9,0.7,1.1,1.6c0.2,0.9,0.4,1.9,0.6,2.2h-1.8c-0.1-0.2-0.3-1.1-0.4-2c-0.2-1-0.4-1.3-1-1.3h-0.3v3.2h-1.7V22.1z
						 M211.4,25.6h0.3c0.7,0,1.1-0.6,1.1-1.3c0-0.7-0.3-1.2-1-1.2c-0.2,0-0.3,0-0.4,0V25.6z"/>
					<path class="st0" d="M217.7,28.2l-0.4,1.9h-1.6l1.9-8.1h2l1.7,8.1h-1.6l-0.4-1.9H217.7z M219.1,27l-0.3-1.7
						c-0.1-0.5-0.2-1.3-0.3-1.8h0c-0.1,0.5-0.2,1.4-0.3,1.8l-0.3,1.7H219.1z"/>
					<path class="st0" d="M222.3,21.9h1.7v6.8h2.2v1.3h-3.9V21.9z"/>
					<path class="st0" d="M145.2,34.1c0.4-0.1,1-0.2,1.7-0.2c1.1,0,1.9,0.2,2.4,0.7c0.7,0.6,1.1,1.7,1.1,3.3c0,1.6-0.4,2.8-1.2,3.4
						c-0.6,0.5-1.4,0.8-2.6,0.8c-0.5,0-1.1,0-1.4-0.1V34.1z M146.9,40.9c0.1,0,0.2,0,0.3,0c0.8,0,1.5-0.7,1.5-3
						c0-1.7-0.5-2.7-1.5-2.7c-0.1,0-0.2,0-0.3,0V40.9z"/>
					<path class="st0" d="M155.4,38.6h-2v2.2h2.2v1.4h-3.9V34h3.8v1.4h-2.1v1.9h2V38.6z"/>
					<path class="st0" d="M161.3,34v8.1h-1.7V34H161.3z"/>
					<path class="st0" d="M163,42.2V34h1.5l1.3,3.2c0.3,0.6,0.7,1.7,0.9,2.4h0c-0.1-0.9-0.2-2.3-0.2-3.8V34h1.5v8.1h-1.5l-1.3-3.1
						c-0.3-0.7-0.7-1.7-0.9-2.5h0c0.1,0.8,0.1,2.1,0.1,3.7v1.8H163z"/>
					<path class="st0" d="M171.2,42.2l-1.9-8.1h1.9l0.6,3.5c0.1,0.9,0.3,1.9,0.4,2.8h0c0.1-1,0.3-1.9,0.4-2.9l0.6-3.5h1.9l-2,8.1
						H171.2z"/>
					<path class="st0" d="M179.8,38.6h-2v2.2h2.2v1.4h-3.9V34h3.8v1.4h-2.1v1.9h2V38.6z"/>
					<path class="st0" d="M181.5,34.1c0.5-0.1,1.2-0.2,1.8-0.2c0.9,0,1.8,0.1,2.3,0.6c0.5,0.4,0.7,1,0.7,1.7c0,0.9-0.5,1.7-1.3,2v0
						c0.6,0.2,0.9,0.7,1.1,1.6c0.2,0.9,0.4,1.9,0.6,2.2h-1.8c-0.1-0.2-0.3-1.1-0.4-2c-0.2-1-0.4-1.3-1-1.3h-0.3v3.3h-1.7V34.1z
						 M183.2,37.7h0.3c0.7,0,1.1-0.6,1.1-1.3c0-0.7-0.3-1.2-1-1.2c-0.2,0-0.3,0-0.4,0V37.7z"/>
					<path class="st0" d="M187.8,40.5c0.3,0.2,0.9,0.3,1.4,0.3c0.8,0,1.2-0.4,1.2-0.9c0-0.6-0.4-0.9-1.1-1.3
						c-1.2-0.7-1.6-1.5-1.6-2.3c0-1.3,0.9-2.4,2.7-2.4c0.6,0,1.1,0.1,1.4,0.3l-0.3,1.4c-0.2-0.1-0.6-0.3-1.1-0.3
						c-0.7,0-1.1,0.4-1.1,0.8c0,0.5,0.3,0.7,1.2,1.3c1.2,0.7,1.6,1.5,1.6,2.3c0,1.5-1.2,2.5-2.9,2.5c-0.7,0-1.4-0.2-1.7-0.3
						L187.8,40.5z"/>
					<path class="st0" d="M195,34v8.1h-1.7V34H195z"/>
					<path class="st0" d="M202,37.9c0,3.1-1.2,4.3-2.8,4.3c-2,0-2.7-2-2.7-4.2c0-2.2,0.9-4.1,2.9-4.1C201.4,33.9,202,36.1,202,37.9z
						 M198.2,38.1c0,1.8,0.4,2.8,1.1,2.8c0.7,0,1-1.2,1-2.9c0-1.4-0.2-2.7-1-2.7C198.5,35.3,198.2,36.3,198.2,38.1z"/>
					<path class="st0" d="M203.3,42.2V34h1.5l1.3,3.2c0.3,0.6,0.7,1.7,0.9,2.4h0c-0.1-0.9-0.2-2.3-0.2-3.8V34h1.5v8.1h-1.5l-1.3-3.1
						c-0.3-0.7-0.7-1.7-0.9-2.5h0c0.1,0.8,0.1,2.1,0.1,3.7v1.8H203.3z"/>
					<path class="st0" d="M213.9,38.6h-2v2.2h2.2v1.4h-3.9V34h3.8v1.4h-2.1v1.9h2V38.6z"/>
					<path class="st0" d="M215.4,40.5c0.3,0.2,1,0.3,1.4,0.3c0.8,0,1.2-0.4,1.2-0.9c0-0.6-0.4-0.9-1.1-1.3c-1.2-0.7-1.6-1.5-1.6-2.3
						c0-1.3,0.9-2.4,2.7-2.4c0.6,0,1.1,0.1,1.4,0.3l-0.3,1.4c-0.2-0.1-0.6-0.3-1.1-0.3c-0.7,0-1.1,0.4-1.1,0.8
						c0,0.5,0.3,0.7,1.2,1.3c1.2,0.7,1.6,1.5,1.6,2.3c0,1.5-1.2,2.5-2.9,2.5c-0.7,0-1.4-0.2-1.7-0.3L215.4,40.5z"/>
				</g>
			</g>
		</g>
		<g>
			<rect x="69.6" y="3" class="st0" width="0.8" height="58.1"/>
		</g>
		<g>
			<g>
				<path class="st0" d="M50.2,11.6l-16.5,0c-0.1,0-0.3-0.1-0.3-0.3l0-4.9c0-0.1,0.1-0.3,0.3-0.3l20.1,0c0.1,0,0.3,0.1,0.3,0.3
					l0,1.3C54.1,9.9,52.4,11.6,50.2,11.6z"/>
			</g>
			<g>
				<path class="st0" d="M38.3,54.9V50c0-0.1,0.1-0.3,0.3-0.3c7.2-0.1,13.1-6.1,13.1-13.3c0-7.3-6-13.3-13.3-13.3l-0.8,0
					c-2.2,0-3.9-1.7-3.9-3.9V18c0-0.1,0.1-0.3,0.3-0.3l4.5,0c10.3,0,18.7,8.4,18.7,18.7c0,10.2-8.3,18.6-18.5,18.7
					C38.4,55.2,38.3,55.1,38.3,54.9z"/>
			</g>
			<g>
				<g>
					<path class="st0" d="M22.1,57.2c0-0.2,0-0.3,0-0.5c0-0.1,0.1-0.3,0.1-0.4c0.1-0.1,0.2-0.2,0.3-0.3c0.1-0.1,0.3-0.2,0.5-0.3
						c0.2-0.1,0.3-0.2,0.4-0.2c0.1-0.1,0.2-0.1,0.3-0.2c0.1-0.1,0.1-0.1,0.2-0.2c0-0.1,0.1-0.1,0.1-0.2c0-0.1,0-0.2-0.1-0.3
						c-0.1-0.1-0.2-0.1-0.4-0.1c-0.1,0-0.2,0-0.3,0c-0.1,0-0.2,0.1-0.2,0.1c-0.1,0-0.1,0.1-0.2,0.1c-0.1,0.1-0.1,0.1-0.2,0.2
						l-0.5-0.6c0.1-0.1,0.1-0.1,0.2-0.2c0.1-0.1,0.2-0.1,0.3-0.2c0.1-0.1,0.3-0.1,0.4-0.1c0.2,0,0.3-0.1,0.5-0.1
						c0.2,0,0.4,0,0.5,0.1c0.2,0,0.3,0.1,0.4,0.2c0.1,0.1,0.2,0.2,0.2,0.3c0.1,0.1,0.1,0.3,0.1,0.4c0,0.1,0,0.3-0.1,0.4
						c-0.1,0.1-0.1,0.2-0.2,0.3c-0.1,0.1-0.2,0.2-0.3,0.2c-0.1,0.1-0.2,0.1-0.3,0.2c-0.1,0-0.1,0.1-0.2,0.1
						c-0.1,0.1-0.2,0.1-0.3,0.2c-0.1,0.1-0.2,0.1-0.2,0.2c-0.1,0.1-0.1,0.1-0.2,0.2h1.8v0.7H22.1z"/>
					<path class="st0" d="M28.9,55.5c0,0.3,0,0.5-0.1,0.7c-0.1,0.2-0.2,0.4-0.3,0.6c-0.1,0.2-0.3,0.3-0.5,0.4s-0.4,0.1-0.6,0.1
						c-0.2,0-0.4,0-0.6-0.1s-0.3-0.2-0.5-0.4c-0.1-0.2-0.2-0.3-0.3-0.6c-0.1-0.2-0.1-0.5-0.1-0.7s0-0.5,0.1-0.7
						c0.1-0.2,0.2-0.4,0.3-0.6c0.1-0.2,0.3-0.3,0.5-0.4c0.2-0.1,0.4-0.1,0.6-0.1c0.2,0,0.4,0,0.6,0.1c0.2,0.1,0.3,0.2,0.5,0.4
						c0.1,0.2,0.2,0.3,0.3,0.6C28.9,55,28.9,55.3,28.9,55.5z M28.1,55.5c0-0.2,0-0.3-0.1-0.4c0-0.1-0.1-0.2-0.1-0.3
						c-0.1-0.1-0.1-0.2-0.2-0.2c-0.1-0.1-0.2-0.1-0.3-0.1c-0.1,0-0.2,0-0.3,0.1c-0.1,0.1-0.2,0.1-0.2,0.2c-0.1,0.1-0.1,0.2-0.1,0.3
						c0,0.1-0.1,0.3-0.1,0.4c0,0.2,0,0.3,0.1,0.4c0,0.1,0.1,0.2,0.1,0.3c0.1,0.1,0.1,0.2,0.2,0.2c0.1,0.1,0.2,0.1,0.3,0.1
						c0.1,0,0.2,0,0.3-0.1c0.1-0.1,0.2-0.1,0.2-0.2c0.1-0.1,0.1-0.2,0.1-0.3C28.1,55.8,28.1,55.7,28.1,55.5z"/>
					<path class="st0" d="M29.9,57.2c0-0.2,0-0.3,0-0.5c0-0.1,0.1-0.3,0.1-0.4c0.1-0.1,0.2-0.2,0.3-0.3c0.1-0.1,0.3-0.2,0.5-0.3
						c0.2-0.1,0.3-0.2,0.4-0.2c0.1-0.1,0.2-0.1,0.3-0.2c0.1-0.1,0.1-0.1,0.2-0.2c0-0.1,0.1-0.1,0.1-0.2c0-0.1,0-0.2-0.1-0.3
						c-0.1-0.1-0.2-0.1-0.4-0.1c-0.1,0-0.2,0-0.3,0c-0.1,0-0.2,0.1-0.2,0.1c-0.1,0-0.1,0.1-0.2,0.1c-0.1,0.1-0.1,0.1-0.2,0.2
						l-0.5-0.6c0.1-0.1,0.1-0.1,0.2-0.2c0.1-0.1,0.2-0.1,0.3-0.2c0.1-0.1,0.3-0.1,0.4-0.1c0.2,0,0.3-0.1,0.5-0.1
						c0.2,0,0.4,0,0.5,0.1c0.2,0,0.3,0.1,0.4,0.2c0.1,0.1,0.2,0.2,0.2,0.3c0.1,0.1,0.1,0.3,0.1,0.4c0,0.1,0,0.3-0.1,0.4
						c-0.1,0.1-0.1,0.2-0.2,0.3c-0.1,0.1-0.2,0.2-0.3,0.2c-0.1,0.1-0.2,0.1-0.3,0.2c-0.1,0-0.1,0.1-0.2,0.1
						c-0.1,0.1-0.2,0.1-0.3,0.2c-0.1,0.1-0.2,0.1-0.2,0.2c-0.1,0.1-0.1,0.1-0.2,0.2h1.8v0.7H29.9z"/>
					<path class="st0" d="M35.3,58v-0.9h-1.7v-0.7l2-2.5h0.5v2.5h0.5v0.7h-0.5V58H35.3z M34.3,56.4h1v-1.3L34.3,56.4z"/>
				</g>
				<g>
					<path class="st0" d="M24.9,51v0.7h-2.4V51h0.8v-1.8c0,0-0.1,0.1-0.2,0.1c-0.1,0-0.2,0.1-0.2,0.1c-0.1,0-0.2,0.1-0.3,0.1
						c-0.1,0-0.2,0-0.3,0v-0.7c0.1,0,0.2,0,0.3-0.1c0.1,0,0.2-0.1,0.3-0.2c0.1-0.1,0.2-0.1,0.3-0.2c0.1-0.1,0.1-0.1,0.1-0.1h0.8V51
						H24.9z"/>
					<path class="st0" d="M25.7,49.8c0-0.2,0-0.4,0.1-0.6c0.1-0.2,0.2-0.3,0.3-0.5c0.1-0.1,0.3-0.2,0.5-0.3c0.2-0.1,0.4-0.1,0.6-0.1
						c0.2,0,0.4,0,0.6,0.1c0.2,0.1,0.3,0.2,0.5,0.4c0.1,0.2,0.2,0.4,0.3,0.6c0.1,0.2,0.1,0.5,0.1,0.8c0,0.4,0,0.7-0.1,1
						c-0.1,0.3-0.2,0.5-0.3,0.7c-0.1,0.2-0.3,0.3-0.5,0.4c-0.2,0.1-0.4,0.2-0.7,0.2c-0.3,0-0.5-0.1-0.7-0.2
						c-0.2-0.1-0.4-0.3-0.6-0.5l0.5-0.5c0.1,0.1,0.2,0.3,0.4,0.3c0.1,0.1,0.3,0.1,0.5,0.1c0.3,0,0.5-0.1,0.6-0.3
						c0.2-0.2,0.2-0.5,0.2-0.9c-0.1,0.1-0.2,0.3-0.3,0.3c-0.2,0.1-0.3,0.1-0.5,0.1c-0.2,0-0.4,0-0.6-0.1c-0.2-0.1-0.3-0.2-0.5-0.3
						c-0.1-0.1-0.2-0.3-0.3-0.4C25.7,50.2,25.7,50,25.7,49.8z M27.2,49c-0.1,0-0.2,0-0.3,0.1c-0.1,0-0.2,0.1-0.2,0.2
						c-0.1,0.1-0.1,0.2-0.2,0.3c0,0.1-0.1,0.2-0.1,0.3c0,0.1,0,0.2,0.1,0.3c0,0.1,0.1,0.2,0.2,0.2c0.1,0.1,0.1,0.1,0.2,0.2
						c0.1,0,0.2,0.1,0.3,0.1c0.1,0,0.2,0,0.3-0.1c0.1,0,0.2-0.1,0.2-0.2s0.1-0.2,0.2-0.2c0-0.1,0.1-0.2,0.1-0.3c0-0.1,0-0.2-0.1-0.3
						c0-0.1-0.1-0.2-0.2-0.2c-0.1-0.1-0.2-0.1-0.2-0.2C27.4,49,27.3,49,27.2,49z"/>
					<path class="st0" d="M31.1,49.8c0.2,0,0.4,0,0.5,0.1c0.2,0.1,0.3,0.2,0.4,0.3c0.1,0.1,0.2,0.3,0.3,0.4c0.1,0.2,0.1,0.3,0.1,0.5
						c0,0.2,0,0.4-0.1,0.6s-0.2,0.3-0.3,0.4c-0.1,0.1-0.3,0.2-0.5,0.3c-0.2,0.1-0.4,0.1-0.6,0.1c-0.3,0-0.6-0.1-0.8-0.2
						c-0.2-0.1-0.4-0.3-0.5-0.5l0.5-0.5c0.1,0.2,0.2,0.3,0.4,0.4c0.2,0.1,0.3,0.1,0.5,0.1c0.2,0,0.4-0.1,0.5-0.2
						c0.1-0.1,0.2-0.3,0.2-0.5c0-0.2-0.1-0.4-0.2-0.5c-0.1-0.1-0.3-0.2-0.5-0.2c-0.1,0-0.2,0-0.4,0.1c-0.1,0.1-0.2,0.1-0.3,0.2h-0.7
						c0,0,0-0.1,0-0.1c0-0.1,0-0.2,0.1-0.3c0-0.1,0-0.3,0.1-0.4c0-0.1,0.1-0.3,0.1-0.4c0.1-0.4,0.1-0.8,0.2-1.2h2v0.7h-1.5L30.5,50
						c0-0.1,0.1-0.1,0.2-0.1C30.8,49.8,30.9,49.8,31.1,49.8z"/>
					<path class="st0" d="M33.3,49.8c0-0.2,0-0.4,0.1-0.6c0.1-0.2,0.2-0.3,0.3-0.5s0.3-0.2,0.5-0.3c0.2-0.1,0.4-0.1,0.6-0.1
						c0.2,0,0.4,0,0.6,0.1c0.2,0.1,0.3,0.2,0.5,0.4c0.1,0.2,0.2,0.4,0.3,0.6c0.1,0.2,0.1,0.5,0.1,0.8c0,0.4,0,0.7-0.1,1
						c-0.1,0.3-0.2,0.5-0.3,0.7c-0.1,0.2-0.3,0.3-0.5,0.4c-0.2,0.1-0.4,0.2-0.7,0.2c-0.3,0-0.5-0.1-0.7-0.2
						c-0.2-0.1-0.4-0.3-0.6-0.5l0.5-0.5c0.1,0.1,0.2,0.3,0.4,0.3c0.1,0.1,0.3,0.1,0.5,0.1c0.3,0,0.5-0.1,0.6-0.3
						c0.2-0.2,0.2-0.5,0.2-0.9c-0.1,0.1-0.2,0.3-0.3,0.3c-0.2,0.1-0.3,0.1-0.5,0.1c-0.2,0-0.4,0-0.6-0.1c-0.2-0.1-0.3-0.2-0.5-0.3
						c-0.1-0.1-0.2-0.3-0.3-0.4C33.3,50.2,33.3,50,33.3,49.8z M34.8,49c-0.1,0-0.2,0-0.3,0.1c-0.1,0-0.2,0.1-0.2,0.2
						c-0.1,0.1-0.1,0.2-0.2,0.3c0,0.1-0.1,0.2-0.1,0.3c0,0.1,0,0.2,0.1,0.3c0,0.1,0.1,0.2,0.2,0.2c0.1,0.1,0.1,0.1,0.2,0.2
						c0.1,0,0.2,0.1,0.3,0.1s0.2,0,0.3-0.1c0.1,0,0.2-0.1,0.2-0.2c0.1-0.1,0.1-0.2,0.2-0.2c0-0.1,0.1-0.2,0.1-0.3
						c0-0.1,0-0.2-0.1-0.3c0-0.1-0.1-0.2-0.2-0.2c-0.1-0.1-0.2-0.1-0.2-0.2C35,49,34.9,49,34.8,49z"/>
				</g>
				<g>
					<path class="st0" d="M17.9,39.4h1l2.2,5.7h-1.1l-0.5-1.4h-2l-0.5,1.4h-1.1L17.9,39.4z M19.1,42.9l-0.8-2.2l-0.8,2.2H19.1z"/>
					<path class="st0" d="M24.7,41.5v3.6h-1.1v-5.7h0.9l3,3.7v-3.7h1.1v5.7h-0.9L24.7,41.5z M26.5,38.8c-0.1,0-0.2,0-0.3-0.1
						c-0.1,0-0.2-0.1-0.3-0.1c-0.1,0-0.2-0.1-0.2-0.1c-0.1,0-0.2-0.1-0.2-0.1c-0.1,0-0.2,0-0.2,0.1c-0.1,0-0.1,0.1-0.1,0.1
						c0,0,0,0.1,0,0.1c0,0,0,0.1,0,0.1h-0.6c0,0,0-0.1,0-0.2c0-0.1,0.1-0.2,0.2-0.3c0.1-0.1,0.2-0.2,0.3-0.3
						c0.1-0.1,0.3-0.1,0.4-0.1c0.1,0,0.2,0,0.3,0.1c0.1,0,0.2,0.1,0.2,0.1c0.1,0,0.2,0.1,0.2,0.1c0.1,0,0.2,0.1,0.3,0.1
						c0.1,0,0.2,0,0.2-0.1c0.1,0,0.1-0.1,0.1-0.1c0,0,0-0.1,0.1-0.1c0,0,0-0.1,0-0.1h0.6c0,0,0,0.1,0,0.2c0,0.1-0.1,0.2-0.2,0.3
						c-0.1,0.1-0.2,0.2-0.3,0.3C26.9,38.8,26.7,38.8,26.5,38.8z"/>
					<path class="st0" d="M34,45.2c-0.4,0-0.8-0.1-1.1-0.2c-0.3-0.2-0.6-0.4-0.9-0.6c-0.2-0.3-0.4-0.6-0.6-0.9
						c-0.1-0.3-0.2-0.7-0.2-1.1c0-0.4,0.1-0.7,0.2-1.1c0.1-0.3,0.3-0.7,0.6-0.9c0.2-0.3,0.5-0.5,0.9-0.6c0.3-0.2,0.7-0.2,1.1-0.2
						c0.4,0,0.8,0.1,1.1,0.3c0.3,0.2,0.6,0.4,0.9,0.7c0.2,0.3,0.4,0.6,0.6,0.9c0.1,0.3,0.2,0.7,0.2,1.1c0,0.4-0.1,0.7-0.2,1.1
						c-0.1,0.3-0.3,0.6-0.6,0.9c-0.2,0.3-0.5,0.5-0.9,0.6C34.8,45.1,34.4,45.2,34,45.2z M32.4,42.3c0,0.2,0,0.5,0.1,0.7
						c0.1,0.2,0.2,0.4,0.3,0.6c0.1,0.2,0.3,0.3,0.5,0.4c0.2,0.1,0.4,0.2,0.7,0.2c0.3,0,0.5-0.1,0.7-0.2c0.2-0.1,0.4-0.3,0.5-0.4
						c0.1-0.2,0.2-0.4,0.3-0.6c0.1-0.2,0.1-0.5,0.1-0.7c0-0.2,0-0.5-0.1-0.7c-0.1-0.2-0.2-0.4-0.3-0.6c-0.1-0.2-0.3-0.3-0.5-0.4
						c-0.2-0.1-0.4-0.2-0.7-0.2c-0.3,0-0.5,0.1-0.7,0.2c-0.2,0.1-0.4,0.3-0.5,0.4c-0.1,0.2-0.2,0.4-0.3,0.6
						C32.4,41.8,32.4,42,32.4,42.3z"/>
					<path class="st0" d="M43,40.9c0,0-0.1-0.1-0.2-0.2c-0.1-0.1-0.2-0.1-0.4-0.2c-0.1-0.1-0.3-0.1-0.5-0.2c-0.2,0-0.3-0.1-0.5-0.1
						c-0.3,0-0.5,0.1-0.7,0.2c-0.1,0.1-0.2,0.3-0.2,0.5c0,0.1,0,0.2,0.1,0.3c0.1,0.1,0.1,0.1,0.2,0.2c0.1,0.1,0.2,0.1,0.4,0.2
						c0.2,0,0.4,0.1,0.6,0.2c0.3,0.1,0.5,0.2,0.8,0.2c0.2,0.1,0.4,0.2,0.6,0.3c0.2,0.1,0.3,0.3,0.4,0.5c0.1,0.2,0.1,0.4,0.1,0.7
						c0,0.3-0.1,0.6-0.2,0.8c-0.1,0.2-0.3,0.4-0.5,0.5c-0.2,0.1-0.4,0.2-0.7,0.3c-0.3,0.1-0.5,0.1-0.8,0.1c-0.4,0-0.8-0.1-1.3-0.2
						c-0.4-0.1-0.8-0.3-1.1-0.5l0.5-1c0,0,0.1,0.1,0.3,0.2c0.1,0.1,0.3,0.2,0.4,0.2c0.2,0.1,0.4,0.1,0.6,0.2
						c0.2,0.1,0.4,0.1,0.6,0.1c0.6,0,0.9-0.2,0.9-0.6c0-0.1,0-0.2-0.1-0.3c-0.1-0.1-0.2-0.2-0.3-0.2c-0.1-0.1-0.3-0.1-0.5-0.2
						c-0.2-0.1-0.4-0.1-0.6-0.2c-0.3-0.1-0.5-0.2-0.7-0.2c-0.2-0.1-0.4-0.2-0.5-0.3c-0.1-0.1-0.2-0.3-0.3-0.4
						c-0.1-0.2-0.1-0.3-0.1-0.6c0-0.3,0.1-0.5,0.2-0.8c0.1-0.2,0.3-0.4,0.4-0.6c0.2-0.1,0.4-0.3,0.7-0.3c0.3-0.1,0.5-0.1,0.8-0.1
						c0.4,0,0.8,0.1,1.1,0.2c0.3,0.1,0.6,0.3,0.9,0.4L43,40.9z"/>
				</g>
			</g>
			<path class="st0" d="M19.7,17.7c-1.2,0-2.3,0.1-3.4,0.3l8-11.5c0.1-0.2,0-0.4-0.2-0.4H20c-1.3,0-2.5,0.6-3.2,1.7L4.2,25.9
				c-2,3-3.2,6.6-3.2,10.5c0,10.2,8.3,18.6,18.5,18.7c0.1,0,0.3-0.1,0.3-0.3V50c0-0.1-0.1-0.3-0.3-0.3c-7.4-0.1-13.3-6.3-13-13.8
				c0.3-6.9,5.9-12.5,12.8-12.8c7.5-0.3,13.7,5.6,13.8,13c0,0.1,0.1,0.3,0.3,0.3h4.9c0.1,0,0.3-0.1,0.3-0.3
				C38.3,26,29.9,17.7,19.7,17.7z"/>
		</g>
	</g>
	<path class="st0" d="M81.3,30c0.1,0.7,0.1,1.4,0.1,2.2h-0.7c0-0.7,0-1.4-0.1-2.2c-1,0.2-1.8,1.1-1.8,2.2c0,1.1,0.8,1.9,1.8,2.2
		c0.1,0,0.3,0,0.4,0c0.1,0,0.2,0,0.2,0c1.1-0.1,2-1,2-2.2C83.2,31.1,82.4,30.2,81.3,30"/>
</g>
</svg>
